<svg width="104" height="64" viewBox="0 0 104 64" fill="none" xmlns="http://www.w3.org/2000/svg">
<path d="M13.54 10.1804L14.194 20.0379L18.2242 20.1417L18.0875 25.4572L14.5469 25.3661L15.0264 32.6045L9.70218 32.569L9.21517 25.2293L6.14007 25.1509L6.27669 19.8354L8.86225 19.9012L8.01979 7.21688L18.997 0.929169L24.664 6.86243L20.8236 10.5361L18.0294 7.61058L13.5413 10.1816L13.54 10.1804ZM85.913 27.251H77.8476L78.9064 8.32201L73.6214 7.64982L72.1554 32.5678H85.9117V27.251H85.913ZM46.4414 35.0742C52.0464 27.0421 56.494 17.7973 59.6602 7.59665L60.2673 5.64211L58.5344 4.55597C57.7336 4.05341 55.3214 2.13937 54.7585 0L49.6202 1.35198C50.3868 4.26734 52.4879 6.49659 54.0185 7.79667C51.2609 16.1655 47.5862 23.8141 43.0754 30.579L44.3125 6.68014L39.0073 6.40544L37.4603 36.2452H45.623L46.4414 35.0742ZM70.707 12.478L71.0118 7.29031L62.5948 6.24847L61.9548 8.30935C59.2136 17.1441 55.5276 25.2825 50.9763 32.5678H69.523L69.8304 27.2497L60.2092 27.2206C60.7506 26.1446 61.2755 25.0534 61.7853 23.9483H67.4624L67.8216 18.629H64.0711C64.935 16.4668 65.7395 14.2578 66.4846 12.0045L70.7082 12.478H70.707ZM90.7792 22.5849L86.6985 21.1557L86.5543 23.947H81.2339L82.022 8.71824L94.8967 10.355L97.1166 32.5678H91.7773L90.7792 22.5849ZM90.3618 18.415L90.0076 14.8794L87.0489 14.3464L86.9009 17.2036L90.3605 18.415H90.3618ZM36.6836 8.16124L34.9114 32.5665H29.5822L30.2083 23.9559L26.7221 22.6406L26.0846 32.5665H20.7604L22.0848 11.9324L36.6811 8.15998L36.6836 8.16124ZM30.4967 20.0063L30.8496 15.1591L27.1421 16.1174L26.9776 18.6783L30.4967 20.0063ZM58.06 35.0869L55.8653 60.9454H61.1971L63.3918 35.0869H58.06ZM14.7898 48.2117L13.855 53.4449L18.4025 54.2589L18.1685 55.702C16.5468 55.5666 12.8684 55.6299 8.12225 58.0072L5.78083 57.2262C6.30452 53.645 7.62892 46.1939 10.2271 40.4037H13.3958L12.8279 43.6266L18.0597 44.5507L19.7282 35.0882H6.93952L6.197 36.5275C1.66215 45.3242 0.277024 58.2351 0.221366 58.7807L0 60.9023L8.62697 63.7823L9.64905 63.2139C13.3123 61.1745 16.0851 60.953 17.3134 60.9821L16.8251 64H22.2075L24.4831 49.9485L14.7898 48.2143V48.2117ZM92.8917 48.2497L92.0277 53.4956L97.0964 54.3323L96.8611 55.6691C95.0358 55.6894 91.9986 56.1122 87.9432 58.0326L85.24 57.1819C85.746 53.5943 87.0641 46.1559 89.8622 40.4037H93.485L93.8632 44.1849L99.1494 43.6558L98.293 35.0869H86.6947L85.9345 36.4477C80.9936 45.2888 79.74 58.2592 79.6881 58.8073L79.4895 60.9454L88.4062 63.7506L89.3764 63.2531C92.3174 61.7429 94.5273 61.2201 95.9187 61.0543L95.8858 61.2441L95.4014 63.9975H100.796L103.261 49.9612L92.8942 48.2497H92.8917ZM35.4174 35.0869L33.1152 60.9454H27.7821L28.9471 47.856L25.2965 46.1167L24.9663 48.0434L19.7294 47.1446L21.7964 35.0869H35.4174ZM25.9631 42.2278L29.3064 43.8203L29.6112 40.4037H26.2756L25.9631 42.2278ZM49.4773 35.0869L45.4282 45.6711L43.7762 38.7631H37.0808L35.1644 60.9454H40.4962L41.3247 51.3562L42.5947 56.6666H46.9107L49.1788 50.7372L48.2756 60.9454H53.6086L55.8969 35.0869H49.4773ZM77.2936 58.5845C77.3467 58.0161 78.6458 44.5596 83.8346 35.2742L83.9396 35.0869H77.9577C76.1248 39.0732 74.6081 43.7355 73.5101 48.7219L70.4869 35.0869H65.4321L63.369 60.9454H68.6982L69.2485 54.0462L70.7778 60.9454H77.0735L77.2936 58.5845Z" fill="#EFEFEF"/>
</svg>
